HIERARCHY
ROOT hip
{
	OFFSET 0.000000 0.000000 0.000000 
	CHANNELS 6 Xposition Yposition Zposition Zrotation Xrotation Yrotation
	JOINT abdomen
	{
		OFFSET 0.000000 3.402643 0.000000 
		CHANNELS 3 Zrotation Xrotation Yrotation
		JOINT chest
		{
			OFFSET 0.000000 8.438565 -0.680529 
			CHANNELS 3 Zrotation Xrotation Yrotation
			JOINT neck
			{
				OFFSET 0.000000 10.207942 -0.272212 
				CHANNELS 3 Zrotation Xrotation Yrotation
				JOINT head
				{
					OFFSET 0.000000 3.130431 0.000000 
					CHANNELS 3 Zrotation Xrotation Yrotation
					End Site
					{
						OFFSET 0.000000 3.130435 0.000000 
					}
				}
			}
			JOINT lCollar
			{
				OFFSET 3.470700 6.669187 -0.816635 
				CHANNELS 3 Zrotation Xrotation Yrotation
				JOINT lShldr
				{
					OFFSET 3.198488 0.000000 0.000000 
					CHANNELS 3 Zrotation Xrotation Yrotation
					JOINT lForeArm
					{
						OFFSET 10.139888 0.000000 0.000000 
						CHANNELS 3 Zrotation Xrotation Yrotation
						JOINT lHand
						{
							OFFSET 8.370511 0.000000 0.000000 
							CHANNELS 3 Zrotation Xrotation Yrotation
							End Site
							{
								OFFSET 4.083176 0.000000 0.000000 
							}
						}
					}
				}
			}
			JOINT rCollar
			{
				OFFSET -3.470700 6.669187 -0.816635 
				CHANNELS 3 Zrotation Xrotation Yrotation
				JOINT rShldr
				{
					OFFSET -3.198488 0.000000 0.000000 
					CHANNELS 3 Zrotation Xrotation Yrotation
					JOINT rForeArm
					{
						OFFSET -10.139888 0.000000 0.000000 
						CHANNELS 3 Zrotation Xrotation Yrotation
						JOINT rHand
						{
							OFFSET -8.370511 0.000000 0.000000 
							CHANNELS 3 Zrotation Xrotation Yrotation
							End Site
							{
								OFFSET -4.083176 0.000000 0.000000 
							}
						}
					}
				}
			}
		}
	}
	JOINT lThigh
	{
		OFFSET 5.308129 -1.633274 1.361059 
		CHANNELS 3 Zrotation Xrotation Yrotation
		JOINT lShin
		{
			OFFSET -2.041588 -20.007561 0.000000 
			CHANNELS 3 Zrotation Xrotation Yrotation
			JOINT lFoot
			{
				OFFSET 0.000000 -19.190928 -1.224953 
				CHANNELS 3 Zrotation Xrotation Yrotation
				End Site
				{
					OFFSET 0.000000 -2.449906 4.627600 
				}
			}
		}
	}
	JOINT rThigh
	{
		OFFSET -5.308129 -1.633274 1.361059 
		CHANNELS 3 Zrotation Xrotation Yrotation
		JOINT rShin
		{
			OFFSET 2.041588 -20.007561 0.000000 
			CHANNELS 3 Zrotation Xrotation Yrotation
			JOINT rFoot
			{
				OFFSET 0.000000 -19.190928 -1.224953 
				CHANNELS 3 Zrotation Xrotation Yrotation
				End Site
				{
					OFFSET 0.000000 -2.449906 4.627600 
				}
			}
		}
	}
}
MOTION
Frames: 16
Frame Time: 0.033333
3.772278 48.657619 -4.213112 -0.352704 4.609278 -1.602575 0.244648 -3.691374 -2.327997 -0.215288 -3.681613 -1.996282 0.810547 -0.029296 -0.155836 0.900924 -4.257288 -0.187020 -8.059552 -1.160733 -3.327505 -72.017769 15.864981 12.037251 -8.212836 2.897830 -4.811116 8.861478 -15.418019 -8.671712 4.680418 6.451092 14.588662 40.800419 -25.622404 9.104991 -11.581137 17.883982 37.263607 -8.861847 -3.549865 4.558061 2.859796 -11.459908 -12.340575 -1.876171 6.774813 -0.698832 -1.384962 -0.574612 16.846714 -1.028745 -12.125876 8.989178 -0.363885 5.736437 0.233473 2.398698 2.748277 -7.272133 
3.773223 48.657505 -4.212646 -0.352704 4.609278 -1.602575 0.215420 -4.189426 -2.337776 -0.254451 -3.749962 -2.038127 0.810547 -0.029296 -0.155836 0.901327 -4.579513 -0.181781 -8.069577 -1.160151 -3.337100 -72.136307 15.880668 12.099226 -7.478795 2.761539 -4.618752 8.861478 -15.418019 -8.671712 4.303898 6.582445 17.751406 34.791851 -30.520607 10.501396 -14.015047 15.511856 45.124680 -9.752452 -4.143417 4.512913 2.998207 -11.397978 -12.296450 -1.630901 7.014355 -0.811179 -1.361136 -0.603382 19.344833 -1.110415 -12.186218 8.921918 -0.569105 5.719665 0.246761 2.498471 2.685221 -8.183182 
3.774171 48.657391 -4.212176 -0.352704 4.609278 -1.602575 0.196128 -5.224575 -2.355153 -0.264189 -3.583941 -1.969685 0.810547 -0.029296 -0.155836 0.902116 -5.175141 -0.172375 -8.039198 -1.142347 -3.337311 -72.650246 15.915361 11.958934 -6.873890 2.683472 -4.493163 8.861478 -15.418019 -8.671712 3.940346 6.684762 20.915136 29.082497 -35.372070 12.126782 -15.966243 12.831848 52.778336 -11.190539 -4.554574 4.610217 3.177064 -11.357107 -12.273333 -1.405223 7.237636 -0.932490 -1.333653 -0.635871 21.801805 -1.239261 -12.231552 8.828661 -0.658474 5.659362 0.289249 2.512473 2.707549 -9.173690 
3.772593 48.657578 -4.212956 -0.352357 3.847568 -0.845557 0.216100 -6.181596 -2.330209 -0.224958 -3.193332 -1.926595 0.810547 -0.029296 -0.155836 0.903609 -6.132059 -0.157221 -8.029375 -1.141570 -3.337385 -73.077087 15.947404 11.584469 -7.216028 2.752648 -4.600143 8.861478 -15.418019 -8.671712 3.731850 6.744010 22.728104 21.282175 -39.064861 5.587960 -16.857710 11.196503 57.079624 -13.694589 -4.974510 4.851227 2.543942 -9.440555 -12.513616 -1.615847 4.296496 -0.679251 -1.311473 2.245324 18.383341 -0.549179 -11.544732 9.006673 -0.591290 6.628750 0.297404 1.937254 2.087106 -11.166911 
3.771016 48.657780 -4.213736 -0.352074 3.085858 -0.088529 0.245790 -6.640565 -2.315284 -0.185803 -2.998030 -1.904264 0.810547 -0.029296 -0.155836 0.904667 -6.727684 -0.147915 -8.029375 -1.141570 -3.337385 -73.481499 15.936213 11.400717 -7.999149 2.881503 -4.800947 8.861478 -15.418019 -8.671712 3.519800 6.783318 24.531448 12.418547 -42.400578 -1.626716 -17.599661 9.501705 61.323280 -15.618386 -5.557736 4.954748 2.058642 -7.501046 -12.726663 -1.941248 1.394066 -0.355729 -1.279317 4.932093 14.952771 0.207829 -10.844918 9.138515 -0.651617 7.573680 0.343398 1.611188 1.457738 -13.308936 
3.769440 48.657970 -4.214517 -0.351852 2.324178 0.668566 0.265253 -6.259700 -2.305063 -0.176123 -3.574198 -1.895746 0.810547 -0.029296 -0.155836 0.903559 -6.102763 -0.157686 -8.019506 -1.144857 -3.327799 -74.006233 15.877708 11.946489 -8.370606 2.946973 -4.905974 8.861478 -15.418019 -8.671712 3.312176 6.829696 26.345179 2.448720 -45.223106 -9.575397 -18.169081 7.763142 65.538574 -14.784248 -6.436329 4.578751 1.638668 -5.589444 -12.933426 -2.485539 -1.168108 -0.043656 -1.071858 7.382473 11.479128 0.991841 -10.134439 9.382824 -0.613765 8.614247 0.385483 1.285841 0.709189 -15.527826 
3.769440 48.657970 -4.214517 -0.351877 2.421821 0.571510 0.264703 -5.058537 -2.310598 -0.215700 -5.107384 -1.894202 0.810547 -0.029296 -0.155836 0.900701 -4.062001 -0.190099 -7.999372 -1.134893 -3.327949 -74.872078 15.763923 13.423944 -8.214519 2.944704 -4.897600 8.861478 -15.418019 -8.671712 5.166755 6.489102 16.999325 -1.560274 -53.274670 1.976308 5.830198 2.583435 84.092499 -10.913631 -7.878559 3.580836 1.619793 -5.837594 -12.981199 -2.213989 -0.798845 0.015633 -1.085475 7.417635 11.618727 1.010466 -10.130824 9.375877 -0.633202 8.573698 0.385506 1.270946 0.796937 -15.513139 
3.769440 48.657970 -4.214517 -0.351901 2.509700 0.474393 0.264271 -3.857377 -2.316204 -0.255626 -6.650323 -1.894882 0.810547 -0.029296 -0.155836 0.898992 -2.011470 -0.222196 -7.979305 -1.126279 -3.328088 -75.728012 15.629871 14.888738 -8.069004 2.933432 -4.887559 8.861478 -15.418019 -8.671712 6.962473 5.731014 7.693843 0.308389 -59.685970 18.244114 28.782614 13.454166 99.536255 -7.097874 -9.312152 2.560073 1.728530 -6.073917 -12.947812 -2.290021 -0.457304 -0.028781 -1.158387 7.325675 11.627070 0.991843 -10.134439 9.382823 -0.613767 8.614247 0.385483 1.239860 0.733396 -15.518527 
3.769440 48.657970 -4.214517 -0.351927 2.607374 0.377278 0.263955 -2.656223 -2.321705 -0.295983 -8.183484 -1.907416 0.810547 -0.029296 -0.155836 0.898438 0.039058 -0.254518 -7.959324 -1.119005 -3.328245 -76.581917 15.495951 16.352345 -7.912911 2.931285 -4.879121 8.849144 -15.419151 -8.668528 8.631235 4.552358 -1.540522 8.758088 -62.934467 39.988487 48.310146 34.781738 104.414421 -3.347132 -10.751636 1.512148 1.719465 -6.323451 -12.602170 -1.928735 -0.107101 -0.373418 -1.384184 7.320271 11.687456 0.991839 -10.134439 9.382823 -0.613767 8.614247 0.385483 1.278765 0.704271 -15.515454 
3.769440 48.657970 -4.214517 -0.351927 2.607374 0.377278 0.263756 -1.445298 -2.327333 -0.336864 -9.716632 -1.912326 0.810547 -0.029296 -0.155836 0.899008 2.040764 -0.285923 -7.959324 -1.119005 -3.328245 -78.885994 15.357214 20.397570 -6.153362 2.637296 -3.890172 8.849144 -15.419151 -8.668528 8.631235 4.552358 -1.540522 8.758088 -62.934467 39.988487 48.310146 34.781738 104.414421 -3.347132 -10.751636 1.512148 1.719465 -6.323451 -12.602170 -1.928735 -0.107101 -0.373418 -1.384184 7.320271 11.687456 0.991839 -10.134439 9.382823 -0.613767 8.614247 0.385483 1.278765 0.704271 -15.515454 
3.769440 48.657970 -4.214517 -0.351927 2.607374 0.377278 0.263770 -1.562483 -2.326791 -0.317132 -9.804539 -1.899707 0.810547 -0.029296 -0.155836 0.899008 2.040764 -0.285923 -7.959324 -1.119005 -3.328245 -78.885994 15.357214 20.397570 -6.153362 2.637296 -3.890172 8.849144 -15.419151 -8.668528 8.631235 4.552358 -1.540522 8.758088 -62.934467 39.988487 48.310146 34.781738 104.414421 -3.347132 -10.751636 1.512148 1.689935 -6.296791 -12.901897 -1.872336 -0.126651 -0.061371 -1.432020 7.303020 11.730118 0.991839 -10.134439 9.382823 -0.613767 8.614247 0.385483 1.278765 0.704271 -15.515454 
3.769440 48.657970 -4.214517 -0.351927 2.607374 0.377278 0.263784 -1.669902 -2.326251 -0.297391 -9.892447 -1.896795 0.810547 -0.029296 -0.155836 0.899008 2.040764 -0.285923 -7.959324 -1.119005 -3.328245 -78.885994 15.357214 20.397570 -6.153362 2.637296 -3.890172 8.849144 -15.419151 -8.668528 8.631235 4.552358 -1.540522 8.758088 -62.934467 39.988487 48.310146 34.781738 104.414421 -3.347132 -10.751636 1.512148 1.689935 -6.296791 -12.901897 -1.872336 -0.126651 -0.061371 -1.432020 7.303020 11.730118 0.991839 -10.134439 9.382823 -0.613767 8.614247 0.385483 1.278765 0.704271 -15.515454 
3.769440 48.657970 -4.214517 -0.351927 2.607374 0.377278 0.263799 -1.777324 -2.325756 -0.277639 -9.980354 -1.884058 0.810547 -0.029296 -0.155836 0.899008 2.040764 -0.285923 -7.959324 -1.119005 -3.328245 -78.885994 15.357214 20.397570 -6.153362 2.637296 -3.890172 8.849144 -15.419151 -8.668528 8.631235 4.552358 -1.540522 8.758088 -62.934467 39.988487 48.310146 34.781738 104.414421 -3.347132 -10.751636 1.512148 1.689935 -6.296791 -12.901897 -1.872336 -0.126651 -0.061371 -1.432020 7.303020 11.730118 0.991839 -10.134439 9.382823 -0.613767 8.614247 0.385483 1.278765 0.704271 -15.515454 
3.769440 48.657970 -4.214517 -0.351927 2.607374 0.377278 0.263816 -1.894502 -2.325261 -0.257877 -10.068260 -1.871255 0.810547 -0.029296 -0.155836 0.899008 2.040764 -0.285923 -7.959324 -1.119005 -3.328245 -78.885994 15.357214 20.397570 -6.153362 2.637296 -3.890172 8.849144 -15.419151 -8.668528 8.631235 4.552358 -1.540522 8.758088 -62.934467 39.988487 48.310146 34.781738 104.414421 -3.347132 -10.751636 1.512148 1.689935 -6.296791 -12.901897 -1.872738 -0.126677 -0.080901 -1.430654 7.350808 11.718579 0.991839 -10.134439 9.382823 -0.613767 8.614247 0.385483 1.278765 0.704271 -15.515454 
3.769440 48.657970 -4.214517 -0.351927 2.607374 0.377278 0.263833 -2.001934 -2.324767 -0.238106 -10.156167 -1.868197 0.810547 -0.029296 -0.155836 0.899008 2.040764 -0.285923 -7.959324 -1.119005 -3.328245 -78.885994 15.357214 20.397570 -6.153362 2.637296 -3.890172 8.849144 -15.419151 -8.668528 8.631235 4.552358 -1.540522 8.758088 -62.934467 39.988487 48.310146 34.781738 104.414421 -3.347132 -10.751636 1.512148 1.689935 -6.296791 -12.901897 -1.862752 -0.126670 -0.071300 -1.428925 7.384649 11.667789 0.991839 -10.134439 9.382823 -0.613767 8.614247 0.385483 1.278765 0.704271 -15.515454 
3.769440 48.657970 -4.214517 -0.351927 2.607374 0.377278 0.263852 -2.119117 -2.324226 -0.228247 -10.244061 -1.857037 0.810547 -0.029296 -0.155836 0.899008 2.040764 -0.285923 -7.959324 -1.119005 -3.328245 -78.885994 15.357214 20.397570 -6.153362 2.637296 -3.890172 8.849144 -15.419151 -8.668528 8.631235 4.552358 -1.540522 8.758088 -62.934467 39.988487 48.310146 34.781738 104.414421 -3.347132 -10.751636 1.512148 1.689935 -6.296791 -12.901897 -1.862752 -0.126670 -0.071300 -1.440180 7.339472 11.718116 0.991839 -10.134439 9.382823 -0.613767 8.614247 0.385483 1.278765 0.704271 -15.515454 
